<?xml version="1.0" encoding="UTF-8" standalone="no"?>
<svg
   xmlns:dc="http://purl.org/dc/elements/1.1/"
   xmlns:cc="http://creativecommons.org/ns#"
   xmlns:rdf="http://www.w3.org/1999/02/22-rdf-syntax-ns#"
   xmlns:svg="http://www.w3.org/2000/svg"
   xmlns="http://www.w3.org/2000/svg"
   width="100%"
   height="100%"
   viewBox="0 0 64 64"
   version="1.1"
   xml:space="preserve"
   style="fill-rule:evenodd;clip-rule:evenodd;stroke-linecap:round;stroke-linejoin:round;stroke-miterlimit:2;"
   id="svg25">
  <metadata
   id="metadata31">
    <rdf:RDF>
      <cc:Work
   rdf:about="">
        <dc:format>image/svg+xml</dc:format>

        <dc:type
   rdf:resource="http://purl.org/dc/dcmitype/StillImage" />

      </cc:Work>

    </rdf:RDF>

  </metadata>

  <defs
   id="defs29" />

  
  <path
   d="M56,12.232c0,-1.123 -0.446,-2.199 -1.239,-2.993c-0.794,-0.793 -1.87,-1.239 -2.993,-1.239c-9.099,0 -30.437,0 -39.536,0c-1.123,0 -2.199,0.446 -2.993,1.239c-0.793,0.794 -1.239,1.87 -1.239,2.993c0,4.374 0,11.162 0,15.536c0,1.123 0.446,2.199 1.239,2.993c0.794,0.793 1.87,1.239 2.993,1.239c9.099,0 30.437,0 39.536,0c1.123,0 2.199,-0.446 2.993,-1.239c0.793,-0.794 1.239,-1.87 1.239,-2.993c0,-4.374 0,-11.162 0,-15.536Z"
   style="fill:none;stroke:#222a33;stroke-width:1.5px;"
   id="path3" />

  <path
   d="M52,28l0,-6"
   style="fill:none;stroke:#222a33;stroke-width:1.5px;"
   id="path5" />

  <path
   d="M12,28l0,-6"
   style="fill:none;stroke:#222a33;stroke-width:1.5px;"
   id="path7" />

  <path
   d="M52,27l-40,0"
   style="fill:none;stroke:#222a33;stroke-width:1.5px;"
   id="path9" />

  <path
   d="M52,23l-26.5,0"
   style="fill:none;stroke:#222a33;stroke-width:1.5px;"
   id="path11" />

  <path
   d="M21.5,23l-5.5,0"
   style="fill:none;stroke:#222a33;stroke-width:1.5px;"
   id="path13" />

  <circle
   cx="49"
   cy="14"
   r="2"
   style="fill:none;stroke:#222a33;stroke-width:1.5px;"
   id="circle15" />

  <path
   d="M37.5,38l0,15.5c0,0.663 0.263,1.299 0.732,1.768c0.469,0.469 1.105,0.732 1.768,0.732c1.381,0 2.5,-1.119 2.5,-2.5c0,-0.808 0,-1.5 0,-1.5"
   style="fill:none;stroke:#222a33;stroke-width:1.5px;"
   id="path17" />

  <path
   d="M26.5,38l0,15.5c0,0.663 -0.263,1.299 -0.732,1.768c-0.469,0.469 -1.105,0.732 -1.768,0.732c-1.381,0 -2.5,-1.119 -2.5,-2.5c0,-0.808 0,-1.5 0,-1.5"
   style="fill:none;stroke:#222a33;stroke-width:1.5px;"
   id="path19" />

  <path
   d="M46.099,36.846l0,8.454c0,0.939 0.761,1.7 1.7,1.7c0,0 0.001,0 0.001,0c0.939,0 1.7,-0.761 1.7,-1.7c0,-0.181 0,-0.3 0,-0.3"
   style="fill:none;stroke:#222a33;stroke-width:1.5px;"
   id="path21" />

  <path
   d="M17.901,36.846l0,8.454c0,0.939 -0.761,1.7 -1.7,1.7c0,0 -0.001,0 -0.001,0c-0.939,0 -1.7,-0.761 -1.7,-1.7c0,-0.181 0,-0.3 0,-0.3"
   style="fill:none;stroke:#222a33;stroke-width:1.5px;"
   id="path23" />

</svg>
