<svg xmlns="http://www.w3.org/2000/svg" width="128" height="128" viewBox="0 0 128 128">
  <title>BATHUP</title>
  <g>
    <path d="M105.74,62.309h-1.573V36.48a12.245,12.245,0,0,0-22.414-6.827,8.258,8.258,0,0,0-9.3,4.6,1.749,1.749,0,0,0,.859,2.32l11.813,5.429a1.75,1.75,0,0,0,2.321-.859,8.238,8.238,0,0,0-2.466-9.978,8.742,8.742,0,0,1,15.691,5.312V62.309H25.428a6.094,6.094,0,0,0,0,12.188H27v5.935A17.066,17.066,0,0,0,40.7,97.138v2.254a4.378,4.378,0,0,0,8.756,0v-1.92H82.459v1.92a4.378,4.378,0,0,0,8.756,0V96.955a17.054,17.054,0,0,0,12.952-16.523V74.5h1.573a6.094,6.094,0,1,0,0-12.188ZM76.664,34.267a4.753,4.753,0,0,1,8.027,3.689ZM45.953,99.392a.878.878,0,0,1-1.756,0v-1.92h1.756Zm41.762-1.92v1.92a.878.878,0,0,1-1.756,0v-1.92h1.756Zm12.952-17.04a13.556,13.556,0,0,1-13.54,13.54H44.041A13.556,13.556,0,0,1,30.5,80.432V74.5h70.166ZM105.74,71H25.428a2.594,2.594,0,0,1,0-5.188H105.74a2.594,2.594,0,0,1,0,5.188Z"/>
    <path d="M75.559,45.642a1,1,0,0,0,1.329-.484l.424-.906a1,1,0,0,0-1.813-.846l-.423.907A1,1,0,0,0,75.559,45.642Z"/>
    <path d="M74.482,47.945a1,1,0,0,0-1.329.484L72.512,49.8a1,1,0,1,0,1.812.845l.641-1.372A1,1,0,0,0,74.482,47.945Z"/>
    <path d="M71.918,53.434a1,1,0,0,0-1.329.483l-.423.906a1,1,0,1,0,1.812.846l.423-.906A1,1,0,0,0,71.918,53.434Z"/>
    <path d="M70.561,42.056a1,1,0,0,0,.73-.317l.683-.729a1,1,0,0,0-1.46-1.367l-.683.729a1,1,0,0,0,.73,1.684Z"/>
    <path d="M66.112,46.806a1,1,0,0,0,.73-.317L67.955,45.3a1,1,0,0,0-1.46-1.367l-1.113,1.187a1,1,0,0,0,.73,1.684Z"/>
    <path d="M62.092,51.1a1,1,0,0,0,.73-.317l.683-.729a1,1,0,0,0-1.459-1.367l-.683.729a1,1,0,0,0,.729,1.684Z"/>
    <path d="M82.533,47.378a1,1,0,0,0,.987-.847l.153-.988a1,1,0,1,0-1.976-.307l-.154.989a1,1,0,0,0,.835,1.141A1.021,1.021,0,0,0,82.533,47.378Z"/>
    <path d="M80.848,50.714l-.232,1.5a1,1,0,0,0,.835,1.142,1.151,1.151,0,0,0,.154.011,1,1,0,0,0,.987-.846l.232-1.5a1,1,0,1,0-1.976-.307Z"/>
    <path d="M79.92,56.7l-.153.988a1,1,0,1,0,1.977.3l.152-.988a1,1,0,1,0-1.976-.3Z"/>
  </g>
</svg>
