<svg xmlns="http://www.w3.org/2000/svg" viewBox="0 0 64 64"><g id="_12-Rent" data-name="12-Rent"><path d="M45.27,27H42a2.006,2.006,0,0,1-2,2V49a2.006,2.006,0,0,1,2,2h6a2.006,2.006,0,0,1,2-2V29a1.991,1.991,0,0,1-1.88-1.34A1.974,1.974,0,0,1,47,28,2,2,0,0,1,45.27,27Z" style="fill:#e9edf5"/><path d="M42,48h6a2.006,2.006,0,0,1,2-2v3a2.006,2.006,0,0,0-2,2H42a2.006,2.006,0,0,0-2-2V46A2.006,2.006,0,0,1,42,48Z" style="fill:#cdd2e1"/><polygon points="45 23 45 22.4 34.16 19 25 49.72 36 53.17 36 23 45 23" style="fill:#cdf55f"/><polygon points="33.903 19.86 34.16 19 45 22.4 45 23 42 23 42 22.4 33.903 19.86" style="fill:#c3dc4b"/><polygon points="33 23 36 23 36 53.17 33 52.229 33 23" style="fill:#c3dc4b"/><path d="M49,26a1.955,1.955,0,0,1-.59,1.41,2.258,2.258,0,0,1-.29.25A1.991,1.991,0,0,0,50,29V49a2.006,2.006,0,0,0-2,2H42a2.006,2.006,0,0,0-2-2V29a2.006,2.006,0,0,0,2-2h3.27A2,2,0,0,1,45,26V23H36V55H54V23H49Z" style="fill:#b4d241"/><path d="M49,23h5V35l5-9L56,8V1H45V8s-4,0-4,4v4s0,4,4,4v6a2,2,0,0,0,2,2,1.974,1.974,0,0,0,1.12-.34,2.258,2.258,0,0,0,.29-.25A1.955,1.955,0,0,0,49,26Z" style="fill:#ffdecf"/><polygon points="56 23 56 31.4 54 35 54 23 56 23" style="fill:#ffbeaa"/><path d="M43,12v4s0,4,4,4v6a2,2,0,0,0,.27,1,2.038,2.038,0,0,0,.717.724A1.968,1.968,0,0,1,47,28a2,2,0,0,1-2-2V20c-4,0-4-4-4-4V12c0-4,4-4,4-4V1h2V8S43,8,43,12Z" style="fill:#ffbeaa"/><polygon points="16 6 16 21 13 21 10 21 10 14 12 12 10 10 12 8 10 6 13 3 16 6" style="fill:#e9edf5"/><path d="M20,23v8a2.006,2.006,0,0,1-2,2H13V32a2.006,2.006,0,0,0-2-2,2.015,2.015,0,0,0-2,2v1H8a2.006,2.006,0,0,1-2-2V23a2.006,2.006,0,0,1,2-2H18A2.006,2.006,0,0,1,20,23Z" style="fill:#65b1fc"/><path d="M18,30H13V29a2.006,2.006,0,0,0-2-2,2.015,2.015,0,0,0-2,2v1H8a2.006,2.006,0,0,1-2-2v3a2.006,2.006,0,0,0,2,2H9V32a2.015,2.015,0,0,1,2-2,2.006,2.006,0,0,1,2,2v1h5a2.006,2.006,0,0,0,2-2V28A2.006,2.006,0,0,1,18,30Z" style="fill:#4a98f7"/><path d="M13,32v1h5a2.006,2.006,0,0,0,2-2V26.6L23,32,20,50V63H9V50s-4,0-4-4V42s0-4,4-4V32a2.015,2.015,0,0,1,2-2A2.006,2.006,0,0,1,13,32Z" style="fill:#ffdecf"/><path d="M22,31v-.8l-2-3.6V31a2.006,2.006,0,0,1-2,2h2A2.006,2.006,0,0,0,22,31Z" style="fill:#ffbeaa"/><path d="M7,46V42s0-4,4-4V32a1.987,1.987,0,0,1,1-1.721A2,2,0,0,0,9,32v6c-4,0-4,4-4,4v4c0,4,4,4,4,4V63h2V50S7,50,7,46Z" style="fill:#ffbeaa"/><rect x="12" y="15" width="2" height="6" style="fill:#bec3d2"/><rect x="9" y="24" width="8" height="2" style="fill:#f7f7f7"/><path d="M59.986,25.835,57,7.917V1a1,1,0,0,0-1-1H45a1,1,0,0,0-1,1V7.1A4.689,4.689,0,0,0,40,12v4a4.837,4.837,0,0,0,4,4.924v.114l-9.541-2.992a1,1,0,0,0-1.257.668l-9.16,30.721a1,1,0,0,0,.659,1.239L35,53.9V55a1,1,0,0,0,1,1H54a1,1,0,0,0,1-1V35.259l4.874-8.773A1,1,0,0,0,59.986,25.835ZM47.714,28.908a2.987,2.987,0,0,0,1.286.92V48.171A3.016,3.016,0,0,0,47.171,50H42.829A3.016,3.016,0,0,0,41,48.171V29.829A3.016,3.016,0,0,0,42.829,28h1.959A2.954,2.954,0,0,0,47,29,3.037,3.037,0,0,0,47.714,28.908ZM26.24,49.061l8.589-28.8L40.384,22H36a1,1,0,0,0-1,1V51.808ZM53,54H37V24h7v2H42a1,1,0,0,0-1,1,1,1,0,0,1-1,1,1,1,0,0,0-1,1V49a1,1,0,0,0,1,1,1,1,0,0,1,1,1,1,1,0,0,0,1,1h6a1,1,0,0,0,1-1,1,1,0,0,1,1-1,1,1,0,0,0,1-1V29a1,1,0,0,0-1-1,.981.981,0,0,1-.6-.215A2.935,2.935,0,0,0,50,26V24h3Zm2-22.859V23a1,1,0,0,0-1-1H50V20H48v6a.969.969,0,0,1-.3.7,1.284,1.284,0,0,1-.148.132,1.034,1.034,0,0,1-1.422-.34A.989.989,0,0,1,46,26V20a1,1,0,0,0-1-1,2.852,2.852,0,0,1-3-3V12a2.852,2.852,0,0,1,3-3,1,1,0,0,0,1-1V2h9V8a1.021,1.021,0,0,0,.014.165L57.956,25.82Z"/><path d="M21,26.341V23a3,3,0,0,0-3-3H17V6a1,1,0,0,0-.293-.707l-3-3a1,1,0,0,0-1.414,0l-3,3a1,1,0,0,0,0,1.414L10.586,8,9.293,9.293a1,1,0,0,0,0,1.414L10.586,12,9.293,13.293A1,1,0,0,0,9,14v6H8a3,3,0,0,0-3,3v8a3,3,0,0,0,3,3v3.076A4.837,4.837,0,0,0,4,42v4a4.689,4.689,0,0,0,4,4.9V63a1,1,0,0,0,1,1H20a1,1,0,0,0,1-1V50.083l2.986-17.918a1,1,0,0,0-.112-.651ZM11,14.414l1.707-1.707a1,1,0,0,0,0-1.414L11.414,10l1.293-1.293a1,1,0,0,0,0-1.414L11.414,6,13,4.414l2,2V20H14V15H12v5H11ZM7,31V23a1,1,0,0,1,1-1H18a1,1,0,0,1,1,1v8a1,1,0,0,1-1,1H14a3,3,0,0,0-3-3,3.017,3.017,0,0,0-3,3A1,1,0,0,1,7,31ZM19.014,49.835A1.021,1.021,0,0,0,19,50V62H10V50a1,1,0,0,0-.994-1A2.854,2.854,0,0,1,6,46V42.005A2.853,2.853,0,0,1,9,39a1,1,0,0,0,1-1V32a.978.978,0,0,1,.306-.712A.957.957,0,0,1,11,31a1,1,0,0,1,1,1v6h2V34h4a3,3,0,0,0,3-3v-.541l.956,1.721Z"/><rect x="9" y="24" width="8" height="2"/></g></svg>