<svg xmlns="http://www.w3.org/2000/svg" viewBox="0 0 60.99 64"><title>chair</title><g id="Layer_2" data-name="Layer 2"><g id="chair"><path d="M59.19,23.32h-7.1a1.8,1.8,0,0,0-1.8,1.79V29.3a1.8,1.8,0,0,0,1.8,1.8h2.55v7.08H51a6.17,6.17,0,0,0-5.42-5.52L47,8.4a7.62,7.62,0,0,0-2.13-5.71A8.57,8.57,0,0,0,38.66,0H22.16A8.56,8.56,0,0,0,16,2.69,7.61,7.61,0,0,0,13.83,8.4l1.46,24.29A6.17,6.17,0,0,0,10,38.15H6.34V31.07H8.89a1.8,1.8,0,0,0,1.8-1.8V25.07a1.8,1.8,0,0,0-1.8-1.79H1.8A1.8,1.8,0,0,0,0,25.07v4.19a1.8,1.8,0,0,0,1.8,1.8H4.34v8.08a1,1,0,0,0,1,1H10a6.55,6.55,0,0,0,1.5,3.46,6.14,6.14,0,0,0,4.8,2.06H29.58V50.4h-14a1,1,0,0,0-1,1v4.38a4.17,4.17,0,1,0,2,0V52.4H44.27v3.38a4.18,4.18,0,1,0,2,0V51.4a1,1,0,0,0-1-1H31.58V45.66H44.65A6.15,6.15,0,0,0,51,40.18h4.69a1,1,0,0,0,1-1V31.1h2.55A1.8,1.8,0,0,0,61,29.3V25.11A1.8,1.8,0,0,0,59.19,23.32ZM2,25.28H8.69v3.78H2ZM17.73,59.83a2.18,2.18,0,1,1-2.17-2.18A2.18,2.18,0,0,1,17.73,59.83Zm29.72,0a2.18,2.18,0,1,1-2.18-2.18A2.18,2.18,0,0,1,47.44,59.83Zm-30-55.77A6.56,6.56,0,0,1,22.16,2h16.5a6.56,6.56,0,0,1,4.75,2.06A5.64,5.64,0,0,1,45,8.28L43.54,32.6H17.28L15.82,8.28A5.64,5.64,0,0,1,17.41,4.06ZM47.94,42.29a4.2,4.2,0,0,1-3.29,1.37H16.34A4.21,4.21,0,0,1,12,39.17a4.3,4.3,0,0,1,4.38-4.57H44.65A4.3,4.3,0,0,1,49,39.17h0A4.73,4.73,0,0,1,47.94,42.29ZM59,29.1H52.3V25.32H59Z"/></g></g></svg>