<svg xmlns="http://www.w3.org/2000/svg" viewBox="0 0 48 48"><defs><style>.cls-1{fill:#1e0f00;}</style></defs><title>Asset 601</title><g id="Layer_2" data-name="Layer 2"><g id="_1" data-name="1"><path class="cls-1" d="M45,48H3a1,1,0,0,1-1-1V21H4V46H44V21h2V47A1,1,0,0,1,45,48Z"/><rect class="cls-1" y="46" width="48" height="2"/><path class="cls-1" d="M47,20H1a1,1,0,0,1-.95-.67,1,1,0,0,1,.33-1.12l23-18a1,1,0,0,1,1.24,0l23,18A1,1,0,0,1,48,19.33,1,1,0,0,1,47,20ZM3.9,18H44.1L24,2.27Z"/><path class="cls-1" d="M42,14H40V2H36v8H34V1a1,1,0,0,1,1-1h6a1,1,0,0,1,1,1Z"/><path class="cls-1" d="M20,41H10a1,1,0,0,1-1-1V26a1,1,0,0,1,1-1H20a1,1,0,0,1,1,1V40A1,1,0,0,1,20,41Zm-9-2h8V27H11Z"/><path class="cls-1" d="M24,16a4,4,0,1,1,4-4A4,4,0,0,1,24,16Zm0-6a2,2,0,1,0,2,2A2,2,0,0,0,24,10Z"/><rect class="cls-1" x="8" y="39" width="14" height="2"/><path class="cls-1" d="M38,41H28a1,1,0,0,1-1-1V26a1,1,0,0,1,1-1H38a1,1,0,0,1,1,1V40A1,1,0,0,1,38,41Zm-9-2h8V27H29Z"/><rect class="cls-1" x="26" y="39" width="14" height="2"/><rect class="cls-1" x="10" y="30" width="10" height="2"/><rect class="cls-1" x="28" y="30" width="10" height="2"/><rect class="cls-1" x="33" width="10" height="2"/></g></g></svg>