<svg xmlns="http://www.w3.org/2000/svg" viewBox="0 0 25 25"><defs><style>.cls-1{fill:#231f20;}</style></defs><g id="kitchen_2" data-name="kitchen 2"><path class="cls-1" d="M23.5,23H23V4.5a.5.5,0,0,0-.5-.5h-9a.5.5,0,0,0-.5.5V13H8.83A1.63,1.63,0,0,0,9,12.27V11h.5a.5.5,0,0,0,0-1H8.31L9,8.72a.5.5,0,0,0-.9-.44L7.19,10H3.5a.5.5,0,0,0,0,1H4v1.27a1.63,1.63,0,0,0,.17.73H2.5a.5.5,0,0,0-.5.5V23H1.5a.5.5,0,0,0,0,1h22a.5.5,0,0,0,0-1ZM22,5v6H14V5ZM5,12.27V11H8v1.27a.73.73,0,0,1-.73.73H5.73A.73.73,0,0,1,5,12.27ZM3,14H13v9H3Zm11,9V12h8V23Z"/><path class="cls-1" d="M15.5,13a.5.5,0,0,0-.5.5v1a.5.5,0,0,0,1,0v-1A.5.5,0,0,0,15.5,13Z"/><path class="cls-1" d="M15.5,16a.5.5,0,0,0-.5.5v4a.5.5,0,0,0,1,0v-4A.5.5,0,0,0,15.5,16Z"/><path class="cls-1" d="M15.5,9a.5.5,0,0,0,.5-.5v-1a.5.5,0,0,0-1,0v1A.5.5,0,0,0,15.5,9Z"/><path class="cls-1" d="M11.5,17h-7a.5.5,0,0,0-.5.5v4a.5.5,0,0,0,.5.5h7a.5.5,0,0,0,.5-.5v-4A.5.5,0,0,0,11.5,17ZM11,21H5V18h6Z"/><path class="cls-1" d="M4.52,16a.5.5,0,0,0,0-1h0a.5.5,0,0,0-.5.5A.5.5,0,0,0,4.52,16Z"/><path class="cls-1" d="M6.52,16a.5.5,0,0,0,0-1h0a.5.5,0,0,0-.5.5A.5.5,0,0,0,6.52,16Z"/><path class="cls-1" d="M8.52,16a.5.5,0,0,0,0-1h0a.5.5,0,0,0-.5.5A.5.5,0,0,0,8.52,16Z"/></g></svg>