<svg xmlns="http://www.w3.org/2000/svg" viewBox="0 0 64 59.2"><title>monitor</title><g id="Layer_2" data-name="Layer 2"><g id="monitor"><path d="M60.75,0H3.25A3.26,3.26,0,0,0,0,3.25V42.64A3.26,3.26,0,0,0,3.25,45.9H21l-1.07,4.68L14.5,53.39a1,1,0,0,0-.54.89V58.2a1,1,0,0,0,1,1H49a1,1,0,0,0,1-1V54.28a1,1,0,0,0-.54-.89l-5.39-2.81L43,45.9h17.7A3.26,3.26,0,0,0,64,42.64V3.25A3.26,3.26,0,0,0,60.75,0ZM48,57.2H16V54.88l5-2.63H43l5,2.63ZM42,50.25H22l1-4.36H41Zm20-7.61a1.26,1.26,0,0,1-1.25,1.26H3.25A1.26,1.26,0,0,1,2,42.64V3.25A1.25,1.25,0,0,1,3.25,2h57.5A1.25,1.25,0,0,1,62,3.25Z"/><path d="M57.17,6.31H6.83a1,1,0,0,0-1,1V38.58a1,1,0,0,0,1,1H57.17a1,1,0,0,0,1-1V7.31A1,1,0,0,0,57.17,6.31Zm-1,31.28H7.83V8.31H56.17Z"/><path d="M41.76,32.29h6.32a1,1,0,0,0,1-1V16.15a1,1,0,0,0-1-1H41.76a1,1,0,0,0-1,1V31.29A1,1,0,0,0,41.76,32.29Zm1-15.13h4.32V30.29H42.76Z"/><path d="M28.52,32.29h6.32a1,1,0,0,0,1-1V20a1,1,0,0,0-1-1H28.52a1,1,0,0,0-1,1v11.3A1,1,0,0,0,28.52,32.29Zm1-11.3h4.32v9.3H29.52Z"/><path d="M15.63,32.29h6.32a1,1,0,0,0,1-1V24.66a1,1,0,0,0-1-1H15.63a1,1,0,0,0-1,1v6.63A1,1,0,0,0,15.63,32.29Zm1-6.63h4.32v4.63H16.63Z"/></g></g></svg>