<svg xmlns="http://www.w3.org/2000/svg" viewBox="0 0 32 32"><g id="receptionist"><path d="M29,16H27V13a5,5,0,0,0-2.21-4.15A3.93,3.93,0,0,0,26,6a4,4,0,0,0-8,0,3.93,3.93,0,0,0,1.21,2.85A5,5,0,0,0,17,13v3H10V14h4a1,1,0,0,0,1-1V6a1,1,0,0,0-1-1H9A1,1,0,0,0,9,7h4v5H5V7A1,1,0,0,0,5,5H4A1,1,0,0,0,3,6v7a1,1,0,0,0,1,1H8v2H3a1,1,0,0,0,0,2H4V29a1,1,0,0,0,1,1H27a1,1,0,0,0,1-1V27a1,1,0,0,0-2,0v1H6V18H26v5a1,1,0,0,0,2,0V18h1a1,1,0,0,0,0-2ZM20,6a2,2,0,1,1,2,2A2,2,0,0,1,20,6ZM19,16V13a3,3,0,0,1,6,0v3Z"/></g></svg>