<svg xmlns="http://www.w3.org/2000/svg" viewBox="0 0 25 25"><defs><style>.cls-1{fill:#231f20;}</style></defs><g id="desk"><path class="cls-1" d="M23,14.49s0-.05,0-.08V11.5a.5.5,0,0,0-.5-.5H19.73a3.26,3.26,0,0,1-.59-1H22.5a.5.5,0,0,0,.5-.5v-7a.5.5,0,0,0-.5-.5h-10a.5.5,0,0,0-.5.5v7a.5.5,0,0,0,.5.5h3.36a3.26,3.26,0,0,1-.59,1H8V7.5A.5.5,0,0,0,7.5,7H6V6.5A.5.5,0,0,0,5.5,6h-2a.5.5,0,0,0-.5.5V11H2.5a.5.5,0,0,0-.5.5v2.91s0,.05,0,.08,0,0,0,.07V23.5a.5.5,0,0,0,1,0V23H9.5a.5.5,0,0,0,.5-.5V18.57s0-.05,0-.07,0-.05,0-.07V15H22V23.5a.5.5,0,0,0,1,0V14.56S23,14.51,23,14.49ZM22,3V7H13V3ZM13,8h9V9H13Zm3.89,2h1.22a4.34,4.34,0,0,0,.39,1h-2A4.34,4.34,0,0,0,16.89,10ZM7,8v3H6V8ZM4,7H5v4H4ZM9,18H3V15H9ZM3,22V19H9v3Zm0-8V12H22v2Z"/></g></svg>