<?xml version="1.0" encoding="utf-8"?>
<!-- Generator: Adobe Illustrator 16.0.0, SVG Export Plug-In . SVG Version: 6.00 Build 0)  -->
<!DOCTYPE svg PUBLIC "-//W3C//DTD SVG 1.1//EN" "http://www.w3.org/Graphics/SVG/1.1/DTD/svg11.dtd">
<svg version="1.1" id="Layer_1" xmlns="http://www.w3.org/2000/svg" xmlns:xlink="http://www.w3.org/1999/xlink" x="0px" y="0px"
	 width="128px" height="128px" viewBox="0 0 128 128" enable-background="new 0 0 128 128" xml:space="preserve">
<g>
	<g>
		<g>
			<rect x="26.497" y="110.031" fill="#282D33" width="17.569" height="4"/>
		</g>
		<g>
			<rect x="31.564" y="121.193" fill="#282D33" width="17.57" height="4"/>
		</g>
		<g>
			<rect x="14.574" y="110.031" fill="#282D33" width="6.902" height="4"/>
		</g>
		<g>
			<rect x="81.566" y="121.197" fill="#282D33" width="17.57" height="4"/>
		</g>
		<g>
			<rect x="104.158" y="121.197" fill="#282D33" width="6.9" height="4"/>
		</g>
		<g>
			<path fill="#282D33" d="M113.426,94.884H17.92V0h95.505V94.884z M21.92,90.884h87.505V4H21.92V90.884z"/>
		</g>
		<g>
			<rect x="57.436" y="100.766" fill="#282D33" width="4" height="27.234"/>
		</g>
		<g>
			<rect x="69.914" y="100.766" fill="#282D33" width="4" height="27.234"/>
		</g>
		<g>
			<path fill="#282D33" d="M102.063,83.598H29.285V11.286h72.778V83.598z M33.285,79.598h64.778V15.286H33.285V79.598z"/>
		</g>
	</g>
	<g>
		<g>
			<path fill="#282D33" d="M70.83,53.957H52.759v-4H70.83c4,0,7.256-3.226,7.256-7.192v-9.194c0-3.966-3.256-7.192-7.256-7.192
				H52.759v-4H70.83c6.207,0,11.256,5.021,11.256,11.192v9.194C82.086,48.937,77.037,53.957,70.83,53.957z"/>
		</g>
		<g>
			<rect x="50.318" y="21.739" fill="#282D33" width="4" height="51.229"/>
		</g>
	</g>
</g>
</svg>
