<svg xmlns="http://www.w3.org/2000/svg" viewBox="0 0 46 48"><defs><style>.cls-1{fill:#1e0f00;}</style></defs><title>Asset 171</title><g id="Layer_2" data-name="Layer 2"><g id="_1" data-name="1"><path class="cls-1" d="M34,48H4a4,4,0,0,1-4-4V4A4,4,0,0,1,4,0H34a4,4,0,0,1,4,4v6H36V4a2,2,0,0,0-2-2H4A2,2,0,0,0,2,4V44a2,2,0,0,0,2,2H34a2,2,0,0,0,2-2V34h2V44A4,4,0,0,1,34,48Z"/><rect class="cls-1" x="14" y="4" width="10" height="2"/><rect class="cls-1" x="26" y="4" width="2" height="2"/><rect class="cls-1" x="18" y="42" width="2" height="2"/><rect class="cls-1" x="27" y="42" width="2" height="2"/><rect class="cls-1" x="9" y="42" width="2" height="2"/><path class="cls-1" d="M32,23a.91.91,0,0,1-.45-.11l-6-3,.9-1.78,5.35,2.67,6.49-6.49,1.42,1.42-7,7A1,1,0,0,1,32,23Z"/><rect class="cls-1" x="22" y="21" width="2" height="2"/><rect class="cls-1" x="31" y="30" width="2" height="2"/><rect class="cls-1" x="33" y="12" width="2" height="2"/><rect class="cls-1" x="40" y="21" width="2" height="2"/><path class="cls-1" d="M19,40a1,1,0,0,1-.44-.1A1,1,0,0,1,18,39V22A14,14,0,1,1,32,36a13.79,13.79,0,0,1-5.86-1.29l-6.53,5.08A1,1,0,0,1,19,40ZM32,10A12,12,0,0,0,20,22V37l5.41-4.21a1,1,0,0,1,1.07-.1A11.85,11.85,0,0,0,32,34a12,12,0,0,0,0-24Z"/><path class="cls-1" d="M11,40H9a3,3,0,0,1-3-3V35a3,3,0,0,1,3-3h2a3,3,0,0,1,3,3v2A3,3,0,0,1,11,40ZM9,34a1,1,0,0,0-1,1v2a1,1,0,0,0,1,1h2a1,1,0,0,0,1-1V35a1,1,0,0,0-1-1Z"/><path class="cls-1" d="M11,28H9a3,3,0,0,1-3-3V23a3,3,0,0,1,3-3h2a3,3,0,0,1,3,3v2A3,3,0,0,1,11,28ZM9,22a1,1,0,0,0-1,1v2a1,1,0,0,0,1,1h2a1,1,0,0,0,1-1V23a1,1,0,0,0-1-1Z"/><path class="cls-1" d="M11,16H9a3,3,0,0,1-3-3V11A3,3,0,0,1,9,8h2a3,3,0,0,1,3,3v2A3,3,0,0,1,11,16ZM9,10a1,1,0,0,0-1,1v2a1,1,0,0,0,1,1h2a1,1,0,0,0,1-1V11a1,1,0,0,0-1-1Z"/></g></g></svg>