<?xml version="1.0" encoding="UTF-8"?>
<!DOCTYPE svg PUBLIC "-//W3C//DTD SVG 1.1//EN" "http://www.w3.org/Graphics/SVG/1.1/DTD/svg11.dtd">
<!-- Creator: CorelDRAW -->
<svg xmlns="http://www.w3.org/2000/svg" xml:space="preserve" width="2048px" height="2048px" style="shape-rendering:geometricPrecision; text-rendering:geometricPrecision; image-rendering:optimizeQuality; fill-rule:evenodd; clip-rule:evenodd"
viewBox="0 0 2048 2048"
 xmlns:xlink="http://www.w3.org/1999/xlink">
 <defs>
  <style type="text/css">
   <![CDATA[
    .fil2 {fill:none}
    .fil1 {fill:#5E35B1}
    .fil0 {fill:#9575CD}
    .fil3 {fill:#F57C00;fill-rule:nonzero}
    .fil5 {fill:#FFA726;fill-rule:nonzero}
    .fil4 {fill:#FFB74D;fill-rule:nonzero}
    .fil6 {fill:#FFF3E0;fill-rule:nonzero}
   ]]>
  </style>
   <clipPath id="id0">
    <path d="M1024 0c565.539,0 1024,458.461 1024,1024 0,565.539 -458.461,1024 -1024,1024 -565.539,0 -1024,-458.461 -1024,-1024 0,-565.539 458.461,-1024 1024,-1024z"/>
   </clipPath>
 </defs>
 <g id="Layer_x0020_1">
  <metadata id="CorelCorpID_0Corel-Layer"/>
  <path class="fil0" d="M1024 0c565.539,0 1024,458.461 1024,1024 0,565.539 -458.461,1024 -1024,1024 -565.539,0 -1024,-458.461 -1024,-1024 0,-565.539 458.461,-1024 1024,-1024z"/>
  <g style="clip-path:url(#id0)">
   <g id="_461722304">
    <g>
     <path id="_4613600481" class="fil1" d="M1633.55 1966.32l0 0zm-1135.88 -1135.88l0 0z"/>
     <polygon id="_461340056" class="fil1" points="1562.75,673.878 2698.63,1809.76 2698.63,1856.45 1562.75,720.563 "/>
     <polygon id="_461339792" class="fil1" points="1562.75,720.563 2698.63,1856.45 2533.34,1856.45 1397.46,720.563 "/>
     <polygon id="_461328200" class="fil1" points="1397.46,720.563 2533.34,1856.45 2533.34,1927.36 1397.46,791.482 "/>
     <polygon id="_461328632" class="fil1" points="1550.33,830.447 2686.21,1966.33 2686.23,1966.36 1550.35,830.476 "/>
     <polygon id="_461329064" class="fil1" points="1551.36,831.629 2687.24,1967.51 2688.22,1968.65 2689.19,1969.8 2690.14,1970.97 2691.08,1972.14 2692,1973.33 2692.92,1974.54 2693.82,1975.75 2694.7,1976.98 2695.58,1978.22 2696.44,1979.47 2697.29,1980.73 2698.12,1982.01 2698.94,1983.3 2699.75,1984.6 2700.55,1985.91 2701.32,1987.23 2702.09,1988.56 2702.84,1989.9 2703.58,1991.26 2704.3,1992.62 2705.01,1994 2705.7,1995.38 2706.38,1996.78 2707.04,1998.18 2707.69,1999.6 2708.32,2001.02 2708.94,2002.46 2709.54,2003.9 2710.13,2005.36 2710.7,2006.82 2711.25,2008.29 1575.37,872.409 1574.82,870.937 1574.25,869.474 1573.66,868.02 1573.06,866.575 1572.44,865.14 1571.81,863.715 1571.16,862.3 1570.5,860.894 1569.82,859.498 1569.13,858.113 1568.42,856.738 1567.7,855.374 1566.96,854.019 1566.21,852.676 1565.44,851.344 1564.67,850.023 1563.87,848.714 1563.06,847.414 1562.24,846.128 1561.41,844.853 1560.56,843.589 1559.7,842.337 1558.82,841.097 1557.94,839.87 1557.04,838.654 1556.12,837.451 1555.2,836.261 1554.26,835.084 1553.3,833.919 1552.34,832.768 "/>
     <polygon id="_461339360" class="fil1" points="1575.37,872.409 2711.25,2008.29 2711.77,2009.7 2712.27,2011.12 2712.75,2012.55 2713.22,2013.98 2713.67,2015.42 2714.11,2016.87 2714.54,2018.32 2714.95,2019.79 2715.34,2021.26 2715.72,2022.73 2716.08,2024.22 2716.43,2025.71 2716.75,2027.2 2717.07,2028.7 2717.37,2030.21 2717.65,2031.73 2717.92,2033.25 2718.17,2034.77 2718.4,2036.31 2718.62,2037.84 2718.82,2039.39 2719,2040.93 2719.17,2042.49 2719.31,2044.05 2719.45,2045.61 2719.56,2047.18 2719.66,2048.75 2719.74,2050.33 2719.8,2051.91 2719.85,2053.5 2719.87,2055.09 2719.88,2056.68 1584,920.798 1583.99,919.203 1583.96,917.613 1583.92,916.027 1583.86,914.444 1583.78,912.868 1583.68,911.294 1583.57,909.727 1583.43,908.163 1583.28,906.604 1583.12,905.051 1582.93,903.504 1582.74,901.96 1582.52,900.424 1582.29,898.892 1582.04,897.364 1581.77,895.844 1581.49,894.33 1581.19,892.822 1580.87,891.32 1580.54,889.823 1580.2,888.334 1579.84,886.851 1579.46,885.375 1579.06,883.906 1578.66,882.442 1578.23,880.987 1577.79,879.539 1577.34,878.098 1576.87,876.664 1576.38,875.238 1575.89,873.819 "/>
     <polygon id="_461339648" class="fil1" points="1584,920.798 2719.88,2056.68 2719.88,2380.69 1584,1244.81 "/>
     <polygon id="_461330480" class="fil1" points="1584,1244.81 2719.88,2380.69 2719.87,2382.28 2719.85,2383.87 2719.8,2385.46 2719.74,2387.04 2719.66,2388.62 2719.56,2390.19 2719.45,2391.76 2719.31,2393.32 2719.17,2394.88 2719,2396.44 2718.82,2397.98 2718.62,2399.53 2718.4,2401.06 2718.17,2402.6 2717.92,2404.12 2717.65,2405.64 2717.37,2407.16 2717.07,2408.67 2716.75,2410.17 2716.43,2411.66 2716.08,2413.15 2715.72,2414.64 2715.34,2416.11 2714.95,2417.58 2714.54,2419.04 2714.11,2420.5 2713.67,2421.95 2713.22,2423.39 2712.75,2424.82 2712.27,2426.25 2711.77,2427.67 2711.25,2429.08 1575.37,1293.19 1575.89,1291.78 1576.38,1290.37 1576.87,1288.94 1577.34,1287.51 1577.79,1286.07 1578.23,1284.62 1578.66,1283.16 1579.06,1281.7 1579.46,1280.23 1579.84,1278.75 1580.2,1277.27 1580.54,1275.78 1580.87,1274.29 1581.19,1272.78 1581.49,1271.27 1581.77,1269.76 1582.04,1268.24 1582.29,1266.71 1582.52,1265.18 1582.74,1263.64 1582.93,1262.1 1583.12,1260.55 1583.28,1259 1583.43,1257.44 1583.57,1255.88 1583.68,1254.31 1583.78,1252.74 1583.86,1251.16 1583.92,1249.58 1583.96,1247.99 1583.99,1246.4 "/>
     <polygon id="_461332112" class="fil1" points="1575.37,1293.19 2711.25,2429.08 2710.7,2430.55 2710.13,2432.01 2709.54,2433.47 2708.94,2434.91 2708.32,2436.35 2707.69,2437.77 2707.04,2439.19 2706.38,2440.59 2705.7,2441.99 2705.01,2443.37 2704.3,2444.75 2703.58,2446.11 2702.84,2447.47 2702.09,2448.81 2701.32,2450.14 2700.55,2451.46 2699.75,2452.77 2698.94,2454.07 2698.12,2455.36 2697.29,2456.63 2696.44,2457.9 2695.58,2459.15 2694.7,2460.39 2693.82,2461.62 2692.92,2462.83 2692,2464.04 2691.08,2465.23 2690.14,2466.4 2689.19,2467.57 2688.22,2468.72 2687.24,2469.86 2686.26,2470.98 1550.38,1335.1 1551.36,1333.98 1552.34,1332.84 1553.3,1331.69 1554.26,1330.52 1555.2,1329.34 1556.12,1328.15 1557.04,1326.95 1557.94,1325.74 1558.82,1324.51 1559.7,1323.27 1560.56,1322.02 1561.41,1320.75 1562.24,1319.48 1563.06,1318.19 1563.87,1316.89 1564.67,1315.58 1565.44,1314.26 1566.21,1312.93 1566.96,1311.58 1567.7,1310.23 1568.42,1308.87 1569.13,1307.49 1569.82,1306.11 1570.5,1304.71 1571.16,1303.3 1571.81,1301.89 1572.44,1300.46 1573.06,1299.03 1573.66,1297.58 1574.25,1296.13 1574.82,1294.67 "/>
     <polygon id="_461332328" class="fil1" points="1550.38,1335.1 2686.26,2470.98 2686.23,2471.01 1550.35,1335.13 "/>
     <polygon id="_461355416" class="fil1" points="1550.35,1335.13 2686.23,2471.01 2686.21,2471.04 1550.33,1335.16 "/>
     <polygon id="_461340800" class="fil1" points="1550.33,1335.16 2686.21,2471.04 2685.19,2472.16 2684.17,2473.27 2683.13,2474.37 2682.08,2475.45 2681.01,2476.52 2679.94,2477.58 2678.85,2478.62 2677.75,2479.64 2676.64,2480.66 2675.51,2481.65 2674.37,2482.64 2673.23,2483.61 2672.07,2484.56 2670.89,2485.5 2669.71,2486.42 2668.52,2487.33 2667.31,2488.22 2666.1,2489.1 2664.87,2489.96 2663.63,2490.81 2662.39,2491.64 2661.13,2492.45 2659.86,2493.25 2658.58,2494.03 2657.29,2494.79 2655.99,2495.54 2654.68,2496.27 2653.37,2496.99 2652.04,2497.68 2650.7,2498.36 2649.35,2499.03 2648,2499.67 1512.12,1363.79 1513.47,1363.14 1514.82,1362.48 1516.16,1361.8 1517.48,1361.1 1518.8,1360.39 1520.11,1359.66 1521.41,1358.91 1522.7,1358.15 1523.98,1357.37 1525.25,1356.57 1526.51,1355.76 1527.75,1354.93 1528.99,1354.08 1530.22,1353.22 1531.43,1352.34 1532.64,1351.45 1533.83,1350.54 1535.01,1349.62 1536.19,1348.68 1537.35,1347.72 1538.49,1346.75 1539.63,1345.77 1540.76,1344.77 1541.87,1343.76 1542.97,1342.73 1544.06,1341.69 1545.13,1340.64 1546.2,1339.57 1547.25,1338.49 1548.29,1337.39 1549.31,1336.28 "/>
     <polygon id="_461359256" class="fil1" points="1512.12,1363.79 2648,2499.67 2646.66,2500.29 2645.31,2500.88 2643.96,2501.46 2642.6,2502.03 2641.24,2502.57 2639.87,2503.1 2638.49,2503.6 2637.1,2504.09 2635.71,2504.56 2634.31,2505.02 2632.91,2505.45 2631.5,2505.86 2630.08,2506.26 2628.66,2506.64 2627.23,2506.99 2625.8,2507.33 2624.36,2507.65 2622.92,2507.95 2621.47,2508.23 2620.02,2508.49 2618.56,2508.73 2617.09,2508.95 2615.63,2509.15 2614.15,2509.32 2612.68,2509.48 2611.2,2509.62 2609.71,2509.74 2608.22,2509.83 2606.73,2509.91 2605.23,2509.96 2603.73,2509.99 2602.23,2510 1466.35,1374.12 1467.85,1374.11 1469.35,1374.08 1470.85,1374.02 1472.34,1373.95 1473.83,1373.85 1475.32,1373.74 1476.8,1373.6 1478.27,1373.44 1479.75,1373.26 1481.21,1373.07 1482.68,1372.85 1484.13,1372.61 1485.59,1372.35 1487.04,1372.07 1488.48,1371.77 1489.92,1371.45 1491.35,1371.11 1492.78,1370.75 1494.2,1370.38 1495.62,1369.98 1497.03,1369.57 1498.43,1369.13 1499.83,1368.68 1501.22,1368.21 1502.61,1367.72 1503.98,1367.21 1505.36,1366.69 1506.72,1366.14 1508.08,1365.58 1509.43,1365 1510.78,1364.4 "/>
     <polygon id="_461327840" class="fil1" points="673.877,720.563 1809.76,1856.45 1623.03,1856.45 487.145,720.563 "/>
     <polygon id="_461359568" class="fil1" points="1024.16,1374.12 2160.04,2510 2159.88,2510 1024,1374.12 "/>
     <polygon id="_461343056" class="fil1" points="1024,1374.12 2159.88,2510 1717.53,2510 581.653,1374.12 "/>
     <polygon id="_461348648" class="fil1" points="581.653,1374.12 1717.53,2510 1716.03,2509.99 1714.53,2509.96 1713.03,2509.91 1711.54,2509.83 1710.05,2509.74 1708.57,2509.62 1707.08,2509.48 1705.61,2509.32 1704.14,2509.15 1702.67,2508.95 1701.2,2508.73 1699.75,2508.49 1698.29,2508.23 1696.85,2507.95 1695.4,2507.65 1693.96,2507.33 1692.53,2506.99 1691.1,2506.64 1689.68,2506.26 1688.27,2505.86 1686.86,2505.45 1685.45,2505.02 1684.05,2504.56 1682.66,2504.09 1681.28,2503.6 1679.9,2503.1 1678.52,2502.57 1677.16,2502.03 1675.8,2501.46 1674.45,2500.88 1673.1,2500.29 1671.76,2499.67 535.883,1363.79 537.221,1364.4 538.567,1365 539.919,1365.58 541.277,1366.14 542.644,1366.69 544.016,1367.21 545.395,1367.72 546.781,1368.21 548.172,1368.68 549.571,1369.13 550.974,1369.57 552.384,1369.98 553.8,1370.38 555.222,1370.75 556.649,1371.11 558.082,1371.45 559.521,1371.77 560.964,1372.07 562.412,1372.35 563.866,1372.61 565.323,1372.85 566.787,1373.07 568.255,1373.26 569.726,1373.44 571.203,1373.6 572.684,1373.74 574.17,1373.85 575.658,1373.95 577.152,1374.02 578.648,1374.08 580.148,1374.11 "/>
     <polygon id="_461346872" class="fil1" points="535.883,1363.79 1671.76,2499.67 1670.41,2499.03 1669.06,2498.36 1667.72,2497.68 1666.4,2496.99 1665.08,2496.27 1663.77,2495.54 1662.47,2494.79 1661.18,2494.03 1659.9,2493.25 1658.64,2492.45 1657.38,2491.64 1656.13,2490.81 1654.89,2489.96 1653.66,2489.1 1652.45,2488.22 1651.24,2487.33 1650.05,2486.42 1648.87,2485.5 1647.7,2484.56 1646.54,2483.61 1645.39,2482.64 509.507,1346.75 510.655,1347.72 511.815,1348.68 512.986,1349.62 514.169,1350.54 515.363,1351.45 516.567,1352.34 517.783,1353.22 519.01,1354.08 520.248,1354.93 521.495,1355.76 522.754,1356.57 524.022,1357.37 525.3,1358.15 526.59,1358.91 527.888,1359.66 529.197,1360.39 530.516,1361.1 531.844,1361.8 533.181,1362.48 534.527,1363.14 "/>
     <polygon id="_461347016" class="fil1" points="1466.35,1374.12 2602.23,2510 2160.04,2510 1024.16,1374.12 "/>
    </g>
    <path id="_461722664" class="fil1" d="M497.67 830.441l0 0zm-10.5248 -156.562l1075.61 0 0 46.6843 -165.288 0 0 70.9193 68.8843 0c16.063,0 31.5366,3.68032 45.7701,10.3347 14.5099,6.78426 27.476,16.5803 38.2087,28.6299l0.0212599 0.0295276 0.0283465 0.0271654c10.6087,11.9303 19.1646,26.1544 24.9969,41.9055 5.55591,15.0047 8.62796,31.3607 8.62796,48.3886l0 324.01c0,17.028 -3.07205,33.3839 -8.62796,48.3874 -5.83229,15.7512 -14.3882,29.9764 -24.9969,41.9067l-0.0283465 0.0259843 -0.0212599 0.0307087c-10.7327,12.0496 -23.6988,21.8457 -38.2087,28.6299 -14.2335,6.65434 -29.7071,10.3335 -45.7701,10.3335l-442.19 0 -0.157087 0 -442.347 0c-16.063,0 -31.5366,-3.67914 -45.7701,-10.3335 -14.5099,-6.78426 -27.476,-16.5803 -38.2087,-28.6299l-0.0212599 -0.0307087 -0.0283465 -0.0259843c-10.6087,-11.9303 -19.1646,-26.1555 -24.9969,-41.9067 -5.55591,-15.0036 -8.62796,-31.3595 -8.62796,-48.3874l0 -324.01c0,-17.0386 3.07205,-33.3992 8.62442,-48.404 5.83347,-15.7571 14.3894,-29.9788 24.9921,-41.8985l0.0507874 -0.056693c10.7232,-12.0425 23.6858,-21.8398 38.2016,-28.624 14.2335,-6.65197 29.7118,-10.3323 45.7843,-10.3323l92.2241 0 0 -70.9193 -186.732 0 0 -46.6843z"/>
   </g>
  </g>
  <path class="fil2" d="M1024 0c565.539,0 1024,458.461 1024,1024 0,565.539 -458.461,1024 -1024,1024 -565.539,0 -1024,-458.461 -1024,-1024 0,-565.539 458.461,-1024 1024,-1024z"/>
  <polygon class="fil3" points="1562.75,720.563 1397.46,720.563 1397.46,813.927 1350.78,813.927 1350.78,720.563 720.559,720.563 720.559,813.927 673.877,813.927 673.877,720.563 487.145,720.563 487.145,673.878 1562.75,673.878 "/>
  <path class="fil4" d="M1024 791.482l0.807875 0 441.539 0c16.063,0 31.5366,3.68032 45.7701,10.3347 14.5099,6.78426 27.476,16.5803 38.2087,28.6299l0.0212599 0.0295276 0.0283465 0.0271654c10.6087,11.9303 19.1646,26.1544 24.9969,41.9055 5.55591,15.0047 8.62796,31.3607 8.62796,48.3886l0 324.01c0,17.028 -3.07205,33.3839 -8.62796,48.3874 -5.83229,15.7512 -14.3882,29.9764 -24.9969,41.9067l-0.0283465 0.0259843 -0.0212599 0.0307087c-10.7327,12.0496 -23.6988,21.8457 -38.2087,28.6299 -14.2335,6.65434 -29.7071,10.3335 -45.7701,10.3335l-442.19 0 -0.157087 0 0 -582.639z"/>
  <path class="fil5" d="M581.653 791.482l442.347 0 0 582.639 -442.347 0c-16.063,0 -31.5366,-3.67914 -45.7701,-10.3335 -14.5099,-6.78426 -27.476,-16.5803 -38.2087,-28.6299l-0.0212599 -0.0307087 -0.0283465 -0.0259843c-10.6087,-11.9303 -19.1646,-26.1555 -24.9969,-41.9067 -5.55591,-15.0036 -8.62796,-31.3595 -8.62796,-48.3874l0 -324.01c0,-17.0386 3.07205,-33.3992 8.62442,-48.404 5.83347,-15.7571 14.3894,-29.9788 24.9921,-41.8985l0.0531496 -0.0543308 -0.00236221 -0.00236221c10.7232,-12.0425 23.6858,-21.8398 38.2016,-28.624 14.2335,-6.65197 29.7118,-10.3323 45.7843,-10.3323z"/>
  <path class="fil6" d="M1340.07 1009.71l33.6248 0 0 175.43 32.1626 0 0 -175.43 33.6236 0 0 -29.2382 -99.4111 0 0 29.2382zm-46.7811 175.43l33.039 0 0 -204.669 -28.6524 0 0 122.509 -33.0402 -122.509 -40.3477 0 0 204.669 28.9453 0 0 -148.239 40.0559 148.239zm-144.144 -175.43l55.552 0 0 -29.2382 -87.7146 0 0 204.669 87.7146 0 0 -29.2382 -55.552 0 0 -59.9386 44.1496 0 0 -29.2394 -44.1496 0 0 -57.0142zm-102.043 0c5.65276,-0.0484252 9.8445,1.65709 12.4748,5.01969 2.63268,3.41103 3.94843,8.77087 3.89882,16.0323l0 20.1744c0,5.40827 -0.779528,9.69686 -2.33858,12.8646 -1.56024,3.16772 -3.75237,5.45788 -6.62717,6.82205 -2.87481,1.31575 -6.33426,1.99843 -10.3311,1.95l-12.5728 0 0 -62.863 15.4961 0zm52.337 175.43c-1.55906,-3.75237 -2.53347,-7.60276 -2.97166,-11.55 -0.390945,-3.94725 -0.585827,-8.38111 -0.536221,-13.3028l0 -31.5768c0.0484252,-7.11615 -0.634252,-13.5484 -1.95,-19.298 -1.36417,-5.70119 -3.60591,-10.6228 -6.7252,-14.7165 -3.11811,-4.0937 -7.35827,-7.30985 -12.6697,-9.55158 7.16457,-3.3626 12.4276,-8.47914 15.887,-15.398 3.45945,-6.87166 5.16496,-15.5941 5.16496,-26.1201l0 -16.0807c0.0484252,-10.526 -1.60748,-19.298 -4.97008,-26.2654 -3.31418,-6.96851 -8.47914,-12.1831 -15.4961,-15.6425 -7.06654,-3.46063 -16.1303,-5.16615 -27.1925,-5.16615l-48.5351 0 0 204.669 32.1614 0 0 -83.3292 11.1106 0c4.87323,-0.0496063 8.8689,0.827953 11.9386,2.53347 3.12047,1.70551 5.40945,4.48347 6.92008,8.28426 1.46221,3.84922 2.19331,8.91733 2.19331,15.2043l0 32.1614c0,4.14213 0.0980316,7.55434 0.194882,10.2343 0.146457,2.67992 0.341339,4.87205 0.633071,6.62599 0.244488,1.70669 0.537402,3.21614 0.925985,4.48347 0.341339,1.26732 0.732284,2.53465 1.17047,3.80197l32.7461 0zm-215.193 -175.43c5.65158,-0.0484252 9.84331,1.65709 12.4748,5.01969 2.6315,3.41103 3.94725,8.77087 3.89764,16.0323l0 20.1744c0,5.40827 -0.779528,9.69686 -2.33858,12.8646 -1.55906,3.16772 -3.75237,5.45788 -6.62717,6.82205 -2.87481,1.31575 -6.33426,1.99843 -10.3311,1.95l-12.5728 0 0 -62.863 15.4973 0zm52.3359 175.43c-1.55906,-3.75237 -2.53347,-7.60276 -2.97166,-11.55 -0.390945,-3.94725 -0.585827,-8.38111 -0.536221,-13.3028l0 -31.5768c0.0484252,-7.11615 -0.634252,-13.5484 -1.95,-19.298 -1.36417,-5.70119 -3.60591,-10.6228 -6.7252,-14.7165 -3.11811,-4.0937 -7.35827,-7.30985 -12.6697,-9.55158 7.16457,-3.3626 12.4276,-8.47914 15.887,-15.398 3.45945,-6.87166 5.16496,-15.5941 5.16496,-26.1201l0 -16.0807c0.0484252,-10.526 -1.60748,-19.298 -4.97008,-26.2654 -3.31418,-6.96851 -8.47914,-12.1831 -15.4961,-15.6425 -7.06654,-3.46063 -16.1303,-5.16615 -27.1925,-5.16615l-48.5351 0 0 204.669 32.1614 0 0 -83.3292 11.1106 0c4.87323,-0.0496063 8.8689,0.827953 11.9386,2.53347 3.12047,1.70551 5.40945,4.48347 6.92008,8.28426 1.46221,3.84922 2.19331,8.91733 2.19331,15.2043l0 32.1614c0,4.14213 0.0980316,7.55434 0.194882,10.2343 0.146457,2.67992 0.341339,4.87205 0.633071,6.62599 0.244488,1.70669 0.537402,3.21614 0.925985,4.48347 0.341339,1.26732 0.732284,2.53465 1.17047,3.80197l32.7461 0zm-218.41 -49.1209c0,10.9642 1.9004,20.2229 5.65276,27.874 3.75237,7.65119 9.21024,13.4976 16.4717,17.5429 7.26024,3.99567 16.1788,5.99292 26.7036,6.04252 10.526,-0.0496063 19.4433,-2.04685 26.7047,-6.04252 7.26024,-4.04528 12.7181,-9.89174 16.4705,-17.5429 3.75237,-7.65119 5.65276,-16.9099 5.65276,-27.874l0 -106.427c0,-10.9654 -1.9004,-20.2725 -5.65276,-27.9225 -3.75237,-7.65119 -9.21024,-13.4492 -16.4705,-17.4945 -7.26142,-3.99567 -16.1788,-5.9941 -26.7047,-6.04252 -10.5248,0.0484252 -19.4433,2.04685 -26.7036,6.04252 -7.26142,4.04528 -12.7193,9.84331 -16.4717,17.4945 -3.75237,7.65001 -5.65276,16.9571 -5.65276,27.9225l0 106.427zm32.1626 -108.474c0.0484252,-7.26142 1.55906,-12.4264 4.48229,-15.5941 2.97284,-3.11811 7.01812,-4.67835 12.1831,-4.58032 5.16615,-0.0980316 9.21024,1.46221 12.1831,4.58032 2.92323,3.16772 4.43386,8.33268 4.48347,15.5941l0 110.521c-0.0496063,7.26142 -1.56024,12.4252 -4.48347,15.5941 -2.97284,3.11811 -7.01693,4.67717 -12.1831,4.58032 -5.16496,0.0968505 -9.21024,-1.46221 -12.1831,-4.58032 -2.92323,-3.1689 -4.43386,-8.33268 -4.48229,-15.5941l0 -110.521zm-97.9489 -17.8358l52.9217 0 0 -29.2382 -85.0843 0 0 204.669 32.1626 0 0 -84.4997 41.5181 0 0 -29.2382 -41.5181 0 0 -61.6926z"/>
 </g>
</svg>
