<svg xmlns="http://www.w3.org/2000/svg" viewBox="0 0 48 48"><title>Laundry a shirt</title><g id="Laundry_a_shirt" data-name="Laundry a shirt"><path d="M5.55,4.17A1,1,0,1,0,5.19,6,1,1,0,0,0,5.55,4.17Z"/><path d="M8.29,4.29A1,1,0,0,0,9.71,5.71,1,1,0,0,0,8.29,4.29Z"/><path d="M12.62,4.08a1,1,0,1,0,1.09.21A1,1,0,0,0,12.62,4.08Z"/><path d="M33,4H23a1,1,0,0,0,0,2H33A1,1,0,0,0,33,4Z"/><path d="M47.22,35A3,3,0,0,0,45,30H38V4a4,4,0,0,0-4-4H4A4,4,0,0,0,0,4V40a4,4,0,0,0,4,4H22.1A5,5,0,0,0,27,48H45a3,3,0,0,0,2.22-5,3,3,0,0,0,0-4A3,3,0,0,0,47.22,35ZM45,34H27a1,1,0,0,0,0,2H45a1,1,0,0,1,0,2H27a3,3,0,0,1,0-6H45A1,1,0,0,1,45,34ZM29.23,30H27.05a9,9,0,1,0-5,4.45,3.93,3.93,0,0,0,.2,2.06,11,11,0,1,1,7-6.51ZM12,25.4c1.42-.27,1.59-.9,3-.9,1.59,0,1.82,1,4,1s2.39-1,4-1c1.36,0,1.55.63,3,.9A7,7,0,1,1,12,25.4Zm.63-2.35a7,7,0,0,1,12.68,0,5.17,5.17,0,0,0-4.78.05,3.17,3.17,0,0,1-3.1,0A5.19,5.19,0,0,0,12.66,23.05ZM2,4A2,2,0,0,1,4,2H34a2,2,0,0,1,2,2V8H2ZM2,40V10H36V30H31.37a13,13,0,1,0-8.12,8.27A4.89,4.89,0,0,0,24,39a5,5,0,0,0-1.93,3H4A2,2,0,0,1,2,40Zm43,6H27a3,3,0,0,1,0-6H45a1,1,0,0,1,0,2H27a1,1,0,0,0,0,2H45A1,1,0,0,1,45,46Z"/></g></svg>