<svg xmlns="http://www.w3.org/2000/svg" viewBox="0 0 48 48"><defs><style>.cls-1{fill:#dad7e5;}.cls-2{fill:#edebf2;}.cls-3{fill:#6fabe6;}.cls-4{fill:#82bcf4;}.cls-5{fill:#425b72;}.cls-6{fill:#c6c3d8;}.cls-7{fill:#fc6;}.cls-8{fill:#ffde76;}</style></defs><title>Feedback in Web</title><g id="Feedback_in_Web" data-name="Feedback in Web"><path class="cls-1" d="M47,9c0,37.11.15,34.52-.36,35.64A4,4,0,0,1,43,47H5a4,4,0,0,1-4-4V9Z"/><path class="cls-2" d="M47,9c0,37.11.15,34.52-.36,35.64A3.93,3.93,0,0,1,45,45H11a8,8,0,0,1-8-8V9Z"/><path class="cls-3" d="M47,5V9H1V5A4,4,0,0,1,3.36,1.36C4.48.85,1.45,1,43,1A4,4,0,0,1,47,5Z"/><path class="cls-4" d="M47,5V7H6A3,3,0,0,1,3,4a5.45,5.45,0,0,1,.36-2.64A3.93,3.93,0,0,1,5,1H43A4,4,0,0,1,47,5Z"/><path class="cls-5" d="M43,6a1,1,0,1,1,.38-1.92A1,1,0,0,1,43,6Z"/><path class="cls-5" d="M39,6a1,1,0,0,1-.83-1.56,1,1,0,0,1,1.54-.15A1,1,0,0,1,39,6Z"/><path class="cls-5" d="M35,6a1,1,0,1,1,.92-1.38A1,1,0,0,1,35,6Z"/><path class="cls-5" d="M23,6H5A1,1,0,0,1,5,4H23A1,1,0,0,1,23,6Z"/><rect class="cls-3" x="6" y="36" width="36" height="6"/><path class="cls-4" d="M42,36v4H12a4,4,0,0,1-4-4Z"/><rect class="cls-3" x="6" y="14" width="14" height="8"/><path class="cls-4" d="M20,14v6H14a6,6,0,0,1-6-6Z"/><path class="cls-6" d="M20,28H6a1,1,0,0,1,0-2H20A1,1,0,0,1,20,28Z"/><path class="cls-6" d="M20,32H6a1,1,0,0,1,0-2H20A1,1,0,0,1,20,32Z"/><path class="cls-6" d="M42,17c0,10.73.07,10.34-.18,11A3,3,0,0,1,39,30H29l-5,2V17a3,3,0,0,1,3-3H39A3,3,0,0,1,42,17Z"/><path class="cls-1" d="M42,17c0,10.73.07,10.34-.18,11H30a4,4,0,0,1-4-4V14.18A2.77,2.77,0,0,1,27,14H39A3,3,0,0,1,42,17Z"/><path class="cls-7" d="M35.6,26,33,24.63,30.4,26l.5-2.89-2.11-2.05,2.91-.43L33,18l1.3,2.63,2.91.43L35.1,23.11C35.29,24.24,35.18,23.59,35.6,26Z"/><path class="cls-8" d="M35.1,23.11c.17,1,.24.89-.1.89a4,4,0,0,1-3.93-3.28l.63-.09L33,18l1.3,2.63,2.91.43Z"/></g></svg>