<svg id="filled_outline" data-name="filled outline" xmlns="http://www.w3.org/2000/svg" viewBox="0 0 340 340"><path d="M229.12,24.412s-24.809,2.667-26.677,36.014c0,0-1.867,30.678,22.942,41.616l-1.6,69.36,84.3-3.735s-3.423-31.056-4.651-115.88A42.491,42.491,0,0,0,283.694,16.2C272.55,8.932,246.36,4.2,229.12,24.412Z" style="fill:#565e68"/><path d="M306.876,152.462a29.862,29.862,0,0,1-15.2-25.953l-.12-31.362-58.1,2.4-8.157,8.165L223.785,171.4l84.3-3.735S307.574,163.031,306.876,152.462Z" style="fill:#454c54"/><path d="M245.423,143.585V108.254l29.871-8.626v32.731a13.35,13.35,0,0,0,5.06,10.463l5.267,7.162v35.2H237.147V160.733Z" style="fill:#ffd1bd"/><polygon points="237.147 185.181 249.893 185.181 245.423 143.585 237.147 160.733 237.147 185.181" style="fill:#fca490"/><polygon points="285.621 185.181 285.621 149.984 280.354 142.822 275.274 191.547 285.621 185.181" style="fill:#fca490"/><path d="M236.03,162.152c9.855,19.229,45.067,20.314,54.8,0V282.061h-54.8Z" style="fill:#fff"/><polygon points="236.03 254.593 236.03 282.061 290.831 282.061 290.831 237.512 236.03 254.593" style="fill:#e5e5e5"/><path d="M245.423,143.585l-24.406,15.531a22.693,22.693,0,0,0-10.277,15.91l-8.967,62.313a19.435,19.435,0,0,1-5.6,11.08l-14.6,17.283v16.359h63.85Z" style="fill:#c7e2ff"/><path d="M324.032,282.061,318.5,178.2a22.656,22.656,0,0,0-10.4-17.886c-7.53-4.819-15.31-11.535-27.754-17.489V282.061Z" style="fill:#c7e2ff"/><polygon points="228.648 256.893 228.648 282.061 245.423 282.061 245.423 251.665 228.648 256.893" style="fill:#92b4dd"/><polygon points="280.354 240.778 280.354 282.061 296.429 282.061 296.268 235.818 280.354 240.778" style="fill:#92b4dd"/><rect x="10" y="127.138" width="163.469" height="103.679" rx="12.034" style="fill:#8095aa"/><path d="M103.562,265.7H79.907V175.714a8.84,8.84,0,0,1,8.84-8.84h5.975a8.84,8.84,0,0,1,8.84,8.84Z" style="fill:#4a617c"/><path d="M130.639,282.061H52.831v-6.706a9.653,9.653,0,0,1,9.653-9.653h58.5a9.653,9.653,0,0,1,9.654,9.653Z" style="fill:#4a617c"/><path d="M188.7,256.959a16.785,16.785,0,0,0-16.785,16.786v8.316h33.571v-8.316A16.786,16.786,0,0,0,188.7,256.959Z" style="fill:#ffd1bd"/><path d="M275.294,99.628l-29.871,8.626v23.6l30.917,5.629C274.3,135,275.662,103.154,275.294,99.628Z" style="fill:#fca490"/><path d="M231.114,44.005s0,33.336,42.7,42.368c2.427-7.837,13.8-8.075,16.72-.289,4.18,9.938-2.463,22.139-14.421,19.174-.226,8.722-9.855,26.453-31.682,20.675-7.756-2.113-20.091-7.845-23.866-23.2-1.688-5.673-.683-21.354-.943-27.368C219.6,64.721,223.578,51.069,231.114,44.005Z" style="fill:#ffd1bd"/><path d="M303.267,265.7h-72.7a9.948,9.948,0,0,0-9.948,9.948v6.411h92.592V275.65A9.947,9.947,0,0,0,303.267,265.7Z" style="fill:#4a617c"/><rect x="10" y="282.061" width="320" height="24.522" style="fill:#ffc998"/><rect x="33.213" y="306.583" width="273.575" height="23.421" style="fill:#f49d70"/><path d="M313.214,256.959a16.785,16.785,0,0,0-16.785,16.786v8.316H330v-8.316A16.786,16.786,0,0,0,313.214,256.959Z" style="fill:#ffd1bd"/><path d="M326.758,258.011,322.5,177.984a26.718,26.718,0,0,0-11.255-20.372c-1.123-15.243-2.974-47.984-3.812-105.883A46.213,46.213,0,0,0,285.8,12.8c-13.5-8.521-40.267-12.3-58.883,7.964-6.218,1.434-26.738,8.5-28.469,39.416-.068,1.119-1.4,27.037,17.736,41.124,4.9,27.537,38.543,37.911,55.107,22.574.017,7.608-.978,14.9,5.06,20.723v25.921a28.021,28.021,0,0,1-8.521,2.315v-4.616a4,4,0,0,0-8,0v4.605a28.726,28.726,0,0,1-10.41-3.14c0-4.052,0-28.149,0-31.571-.133-5.273-7.867-5.276-8,0v3.271l-13.137,8.36.375-16.244c-.012-5.276-7.745-5.456-8-.185l-.5,21.6a26.969,26.969,0,0,0-13.383,19.539l-8.967,62.313a15.785,15.785,0,0,1-4.7,9.069l-6.087,7.206a20.8,20.8,0,0,0-19.117,20.7v4.316H134.639c.879-8.631-4.67-16.245-13.654-16.359H107.562V175.714a12.854,12.854,0,0,0-12.84-12.84H88.748a12.854,12.854,0,0,0-12.841,12.84v51.1H22.034A8.043,8.043,0,0,1,14,218.784V139.173a8.043,8.043,0,0,1,8.034-8.035h139.4a8.043,8.043,0,0,1,8.034,8.035v79.611a8.043,8.043,0,0,1-8.034,8.034H119.816c-5.281.124-5.266,7.877,0,8h41.619a16.052,16.052,0,0,0,16.034-16.034V139.173a16.053,16.053,0,0,0-16.034-16.035H22.034A16.053,16.053,0,0,0,6,139.173v79.611a16.052,16.052,0,0,0,16.034,16.034H75.907V261.7H62.484c-8.986.115-14.533,7.729-13.653,16.359H10a4,4,0,0,0-4,4v24.522a4,4,0,0,0,4,4H29.212v19.422a4,4,0,0,0,8,0V310.583H302.788v19.422a4,4,0,0,0,8,0V310.583H330a4,4,0,0,0,4-4V282.061C334.141,272.312,334.621,264.923,326.758,258.011Zm-21.4-94.726a18.85,18.85,0,0,1,9.149,15.124l4.006,75.261a20.808,20.808,0,0,0-22.211,8.032H284.354V149.4C292.7,154.053,298.209,158.581,305.361,163.285ZM215.619,75.367v14.49c-10.01-12-9.194-29-9.182-29.207C208.08,31.3,228.7,28.491,229.548,28.389a4,4,0,0,0,2.739-1.533c15.14-17.7,38.795-14.092,49.3-7.255a38.248,38.248,0,0,1,17.848,32.244c.739,51.032,2.265,82.645,3.392,99.978a136.973,136.973,0,0,0-20.245-12.365,9.287,9.287,0,0,1-3.286-7.1v-22.1c.047-.175.1-.355.143-.528a16.33,16.33,0,0,0,16.084-14.045c1.375-8.712-2.989-19.091-12.862-19.333a12.521,12.521,0,0,0-11,5.422c-35.867-9.025-36.534-36.569-36.545-37.782a4.027,4.027,0,0,0-6.471-3.128C220.894,47.228,215.287,64,215.619,75.367ZM273.8,102c-2.415,1.97-1.245,3.267-2.431,6.831-5.752,22.245-41.111,16.9-46.925-7.051-1.457-4.833-.62-21.128-.827-26.413a47.063,47.063,0,0,1,5.194-21.416c5.843,16.822,15.938,29.528,44.169,36.336a3.932,3.932,0,0,0,4.676-2.821,4.776,4.776,0,0,1,4.667-3.124c4.614-.037,5.935,6.335,5.268,10.271a8.264,8.264,0,0,1-10.183,6.852A4.064,4.064,0,0,0,273.8,102ZM249.423,217.906a18.8,18.8,0,0,0,10.273-2.789c4.46-2.785.433-9.488-4.12-6.857a11.178,11.178,0,0,1-6.153,1.667V178.461a41.3,41.3,0,0,0,26.931.653V210.2a8.639,8.639,0,0,1-2.668-1.9,4,4,0,0,0-5.65-.283c-4.863,5.111,4.958,9.95,8.318,10.718V261.7H249.423Zm43.407,51.8c-.544,2.307-.382,5.955-.4,8.359H224.623v-2.524a5.841,5.841,0,0,1,5.835-5.835Zm-93.714-18.569a23.574,23.574,0,0,0,6.616-13.224L214.7,175.6c.988-7.135,5.554-11.736,11.619-15.111l15.1-9.613V261.7H230.458c-8.905.048-14.731,7.772-13.835,16.359h-7.139v-4.316a20.8,20.8,0,0,0-13.153-19.315Zm-23.2,22.612c.6-16.926,24.973-16.915,25.571,0v4.316H175.913Zm-119.082,1.61a5.659,5.659,0,0,1,5.653-5.653H79.907a4,4,0,0,0,4-4V175.714a4.846,4.846,0,0,1,4.841-4.84h5.974a4.845,4.845,0,0,1,4.84,4.84V261.7H95.735c-5.27.132-5.28,7.865,0,8h25.25a5.66,5.66,0,0,1,5.654,5.653v2.706H56.831ZM326,302.583H14V286.061H326Zm0-24.522H300.429v-4.316a12.786,12.786,0,1,1,25.571,0Z" style="fill:#2f313f"/><path d="M223.752,251.982c.125,5.25,7.863,5.3,8,0V209.725a4,4,0,0,0-.761-2.347,19.465,19.465,0,0,1-.133-23.6,4,4,0,0,0-6.2-5.056,27.367,27.367,0,0,0-.907,32.251Z" style="fill:#2f313f"/><path d="M297.78,183.78a19.464,19.464,0,0,1-.132,23.6,4,4,0,0,0-.761,2.347v35.469c.129,5.264,7.865,5.285,8,0V210.977a27.365,27.365,0,0,0-.906-32.251C300.6,174.738,294.574,179.651,297.78,183.78Z" style="fill:#2f313f"/><path d="M239.72,90.494c-2.745-5.718-10.745-.374-6.52,4.361C236.191,97.926,241.432,94.433,239.72,90.494Z" style="fill:#2f313f"/><path d="M255.3,88.7c-4.416-2.854-8.758,3.653-4.44,6.651C255.287,98.182,259.619,91.687,255.3,88.7Z" style="fill:#2f313f"/></svg>